<svg height="480pt" viewBox="-21 0 480 480" width="480pt" xmlns="http://www.w3.org/2000/svg"><path d="m211.457031 414.105469-79.199219 11.320312 11.308594-79.203125 169.738282-169.742187 22.640624-22.558594 11.277344-11.363281c5.777344-5.789063 12.9375-10 20.800782-12.238282 2.617187-.746093 5.292968-1.253906 8-1.519531v-104.800781c-.027344-8.824219-7.171876-15.972656-16-16h-248v80c0 8.835938-7.164063 16-16 16h-88v352c.027343 8.824219 7.175781 15.972656 16 16h336c8.828124-.027344 15.972656-7.175781 16-16v-206.480469l-164.558594 164.558594" fill="#9bc9ff"/><g fill="#1e81ce"><path d="m420.71875 136.902344c-9.773438-9.804688-22.863281-15.605469-36.695312-16.261719v-96.640625c0-13.253906-10.746094-24-24-24h-248c-.167969 0-.328126.078125-.496094.0976562-.636719.0390628-1.265625.1562498-1.871094.3515628-.269531.066406-.539062.148437-.800781.246093-.839844.34375-1.613281.828126-2.289063 1.433594l-104 96c-.710937.683594-1.285156 1.5-1.695312 2.398438-.117188.261718-.21875.527344-.304688.800781-.261718.714844-.417968 1.464844-.460937 2.222656 0 .167969-.105469.320313-.105469.488281v351.960938c0 13.253906 10.746094 24 24 24h336.023438c13.253906 0 24-10.746094 24-24v-203.199219l36.671874-36.671875c10.519532-10.503906 16.433594-24.761718 16.433594-39.628906s-5.914062-29.125-16.433594-39.628906zm-316.695312-110.628906v61.726562c0 4.417969-3.582032 8-8 8h-67.535157zm264 242.527343v187.199219c0 4.417969-3.582032 8-8 8h-336c-4.417969 0-8-3.582031-8-8v-344h80c13.253906 0 24-10.746094 24-24v-72h240c4.417968 0 8 3.582031 8 8v98.0625c-.703126.167969-1.429688.363281-2.175782.5625-9.183594 2.621094-17.550781 7.539062-24.304687 14.296875l-203.65625 203.664063c-.25.28125-.480469.574218-.695313.886718-.0625.09375-.144531.167969-.207031.261719-.65625.960937-1.089844 2.054687-1.28125 3.203125 0 .046875-.046875.078125-.054687.132812l-.074219.503907-11.199219 78.65625c-.328125 2.296875.355469 4.625 1.875 6.378906s3.726562 2.757813 6.046875 2.757813c.378906 0 .757813-.023438 1.136719-.078126l79.199218-11.3125c.144532 0 .253907-.128906.390626-.160156.449218-.078125.890624-.199218 1.320312-.351562.167969-.066406.320312-.152344.480469-.226563.375-.160156.734375-.347656 1.078125-.566406.160156-.105469.296875-.230469.449218-.351563.28125-.195312.546876-.410156.800782-.640624zm-168.6875 138.960938-44.449219 6.34375 5.648437-5.648438c3.03125-3.140625 2.988282-8.128906-.097656-11.214843-3.085938-3.085938-8.074219-3.128907-11.214844-.097657l-5.648437 5.648438 6.347656-44.417969 32.933594 16.464844 12.496093 24.945312zm6.703124-22.402344-7.480468-14.960937 97.746094-97.710938c2.078124-2.007812 2.914062-4.984375 2.179687-7.78125-.730469-2.796875-2.914063-4.980469-5.710937-5.710938-2.796876-.734374-5.773438.101563-7.78125 2.179688l-97.769532 97.746094-30.144531-15.121094 156.21875-156.199219 56.535156 56.597657-156.207031 156.175781zm175.105469-152.28125-56.511719-56.589844 11.304688-11.265625 56.535156 56.539063zm28.261719-28.277344-5.597656 5.597657-56.585938-56.503907 5.601563-5.679687c4.792969-4.796875 10.730469-8.300782 17.246093-10.175782 2.210938-.632812 4.472657-1.066406 6.761719-1.285156 16.863281-1.820312 33.039063 7.195313 40.363281 22.496094 7.324219 15.300781 4.203126 33.554688-7.789062 45.550781zm0 0"/><path d="m330.246094 227.433594c-3.121094-3.125-8.1875-3.125-11.308594 0l-11.3125 11.308594c-2.082031 2.011718-2.914062 4.984374-2.183594 7.78125.734375 2.796874 2.917969 4.980468 5.714844 5.714843 2.796875.730469 5.769531-.101562 7.78125-2.183593l11.308594-11.3125c3.125-3.121094 3.125-8.1875 0-11.308594zm0 0"/><path d="m64.023438 224h168c4.417968 0 8-3.582031 8-8s-3.582032-8-8-8h-168c-4.417969 0-8 3.582031-8 8s3.582031 8 8 8zm0 0"/><path d="m64.023438 272h120c4.417968 0 8-3.582031 8-8s-3.582032-8-8-8h-120c-4.417969 0-8 3.582031-8 8s3.582031 8 8 8zm0 0"/><path d="m144.023438 312c0-4.417969-3.582032-8-8-8h-72c-4.417969 0-8 3.582031-8 8s3.582031 8 8 8h72c4.417968 0 8-3.582031 8-8zm0 0"/><path d="m128.023438 176h152c4.417968 0 8-3.582031 8-8s-3.582032-8-8-8h-152c-4.417969 0-8 3.582031-8 8s3.582031 8 8 8zm0 0"/><path d="m64.023438 176h32c4.417968 0 8-3.582031 8-8s-3.582032-8-8-8h-32c-4.417969 0-8 3.582031-8 8s3.582031 8 8 8zm0 0"/></g></svg>
