<svg viewBox="0 0 16 16" xmlns="http://www.w3.org/2000/svg">
  <path d="M2.1 3.1c0.2 1.3 0.4 1.6 0.4 2.9 0 0.8-1.5 1.5-1.5 1.5v1c0 0 1.5 0.7 1.5 1.5 0 1.3-0.2 1.6-0.4 2.9-0.3 2.1 0.8 3.1 1.8 3.1s2.1 0 2.1 0v-2c0 0-1.8 0.2-1.8-1 0-0.9 0.2-0.9 0.4-2.9 0.1-0.9-0.5-1.6-1.1-2.1 0.6-0.5 1.2-1.1 1.1-2-0.3-2-0.4-2-0.4-2.9 0-1.2 1.8-1.1 1.8-1.1v-2c0 0-1 0-2.1 0s-2.1 1-1.8 3.1z"></path>
  <path d="M13.9 3.1c-0.2 1.3-0.4 1.6-0.4 2.9 0 0.8 1.5 1.5 1.5 1.5v1c0 0-1.5 0.7-1.5 1.5 0 1.3 0.2 1.6 0.4 2.9 0.3 2.1-0.8 3.1-1.8 3.1s-2.1 0-2.1 0v-2c0 0 1.8 0.2 1.8-1 0-0.9-0.2-0.9-0.4-2.9-0.1-0.9 0.5-1.6 1.1-2.1-0.6-0.5-1.2-1.1-1.1-2 0.2-2 0.4-2 0.4-2.9 0-1.2-1.8-1.1-1.8-1.1v-2c0 0 1 0 2.1 0s2.1 1 1.8 3.1z"></path>
</svg>
