<svg viewBox="0 0 92.812 92.812" xmlns="http://www.w3.org/2000/svg">
  <path d="M92.226,44.992L60.971,13.736c-0.781-0.781-2.048-0.781-2.828,0l-6.729,6.728c-0.375,0.375-0.586,0.884-0.586,1.414
    c0,0.53,0.211,1.039,0.586,1.414l23.115,23.114L51.416,69.521c-0.375,0.375-0.586,0.884-0.586,1.414s0.211,1.04,0.586,1.415
    l6.73,6.728c0.391,0.39,0.902,0.585,1.414,0.585s1.024-0.195,1.415-0.586L92.227,47.82C93.008,47.039,93.008,45.773,92.226,44.992z" />
  <path d="M18.283,46.406l23.114-23.114c0.375-0.375,0.586-0.884,0.586-1.414c0-0.53-0.211-1.039-0.586-1.414l-6.728-6.728
    c-0.781-0.781-2.048-0.781-2.828,0L0.586,44.992C0.211,45.367,0,45.876,0,46.406s0.211,1.039,0.586,1.414l31.26,31.256
    c0.375,0.375,0.884,0.586,1.415,0.586c0.53,0,1.039-0.211,1.414-0.586l6.724-6.728c0.781-0.781,0.781-2.049,0-2.828L18.283,46.406z" />
</svg>
