<svg viewBox="0 0 32 32">
  <path d="M2,14.34998h10.84998c0.83002,0,1.5-0.66998,1.5-1.5V2c0-0.83002-0.66998-1.5-1.5-1.5H2C1.16998,0.5,0.5,1.16998,0.5,2v10.84998C0.5,13.67999,1.16998,14.34998,2,14.34998z" />
  <path d="M30,0.5H19.15002c-0.83002,0-1.5,0.66998-1.5,1.5v10.84998c0,0.83002,0.66998,1.5,1.5,1.5H30c0.83002,0,1.5-0.66998,1.5-1.5V2C31.5,1.16998,30.83002,0.5,30,0.5z" />
  <path d="M2,31.5h10.84998c0.83002,0,1.5-0.67004,1.5-1.5V19.14996c0-0.82996-0.66998-1.5-1.5-1.5H2c-0.83002,0-1.5,0.67004-1.5,1.5V30C0.5,30.82996,1.16998,31.5,2,31.5z" />
  <path d="M30,17.64996H19.15002c-0.83002,0-1.5,0.67004-1.5,1.5V30c0,0.82996,0.66998,1.5,1.5,1.5H30c0.83002,0,1.5-0.67004,1.5-1.5V19.14996C31.5,18.32001,30.83002,17.64996,30,17.64996z" />
</svg>
