<svg viewBox="0 -47 425.968 425" xmlns="http://www.w3.org/2000/svg">
  <path d="m166.960938 56.484375c-26.34375 0-47.699219 21.355469-47.699219 47.699219s21.355469 47.699218 47.699219 47.699218 47.699218-21.355468 47.699218-47.699218c-.027344-26.332032-21.367187-47.667969-47.699218-47.699219zm0 0" />
  <path d="m395.96875.484375h-365.96875c-16.5625.019531-29.9804688 13.4375-30 30v224.019531l69.699219-46.417968c16.796875-11.109376 38.621093-11.039063 55.347656.179687l50.910156 34.070313c13.351563 8.980468 31.40625 5.796874 40.886719-7.199219l68.101562-92.980469c9.507813-12.980469 24.683594-20.59375 40.777344-20.453125 16.089844.140625 31.132813 8.019531 40.410156 21.167969l59.832032 84.773437v-197.160156c-.019532-16.558594-13.4375-29.980469-29.996094-30zm-229.007812 171.40625c-37.386719 0-67.699219-30.308594-67.699219-67.699219s30.3125-67.699218 67.699219-67.699218c37.390624 0 67.699218 30.308593 67.699218 67.699218-.042968 37.371094-30.328125 67.65625-67.699218 67.699219zm0 0" />
  <path d="m325.550781 141.699219c-9.671875-.148438-18.804687 4.429687-24.464843 12.269531l-68.101563 92.980469c-15.796875 21.664062-45.894531 26.96875-68.144531 12.007812l-50.917969-34.074219c-10.023437-6.726562-23.105469-6.777343-33.179687-.125l-80.742188 53.773438v21.953125c.0195312 16.558594 13.4375 29.980469 30 30h365.96875c16.558594-.019531 29.980469-13.441406 30-30v-38.160156l-76.171875-107.925781c-5.53125-7.929688-14.578125-12.667969-24.246094-12.699219zm0 0" />
</svg>
