<svg viewBox="0 0 512 512" xmlns="http://www.w3.org/2000/svg">
  <path d="M474.562,37.446c-49.928-49.928-131.135-49.928-181.063,0L220.2,110.744c-3.115,3.115-3.991,7.825-2.219,11.846
    c1.771,4.032,5.522,6.616,10.252,6.356l3.251-0.24c5.533-0.51,11.19-0.094,16.785,0.427c9.388,0.854,19.223,2.844,30.08,6.074
    c3.772,1.156,7.825,0.094,10.586-2.678l49.824-49.824c24.172-24.172,66.37-24.172,90.542,0c24.964,24.964,24.964,65.577,0,90.541
    l-71.375,71.374c-5.617-22.019-16.668-41.752-32.733-57.809c-21.026-21.036-48.293-33.633-78.852-36.435
    c-26.527-2.313-52.669,3.303-75.559,16.525c-10.93,6.335-19.4,12.659-26.652,19.911L37.438,293.503
    c-49.918,49.917-49.918,131.144,0,181.061C62.403,499.528,95.181,512,127.97,512c32.789,0,65.567-12.472,90.532-37.435
    l73.278-73.277c3.105-3.105,3.991-7.793,2.23-11.815c-1.761-4.022-5.97-6.731-10.18-6.387l-3.386,0.24
    c-5.449,0.531-11.096,0.052-16.712-0.458c-9.367-0.854-19.213-2.844-30.09-6.074c-3.793-1.136-7.814-0.094-10.575,2.688
    l-49.824,49.824c-24.172,24.172-66.37,24.172-90.542,0c-24.964-24.964-24.964-65.577,0-90.541l71.375-71.374
    c5.617,22.019,16.668,41.752,32.733,57.808c21.036,21.036,48.303,33.633,78.862,36.425c3.98,0.365,7.95,0.542,11.909,0.542
    c22.391,0,44.187-5.814,63.64-17.056c10.93-6.335,19.4-12.659,26.652-19.911l106.692-106.691
    C524.479,168.59,524.479,87.363,474.562,37.446z M295.679,295.709c-23.009,6.991-47.184,0.646-63.611-15.772
    c-16.656-16.656-22.488-41.152-15.75-63.626c23.051-6.956,47.205-0.639,63.615,15.761
    C296.592,248.731,302.421,273.232,295.679,295.709z" />
</svg>
