<svg viewBox="0 0 24 24" xmlns="http://www.w3.org/2000/svg">
  <path d="m21 3h-20c-.552 0-1-.448-1-1s.448-1 1-1h20c.552 0 1 .448 1 1s-.448 1-1 1z" />
  <path d="m11 8h-10c-.552 0-1-.448-1-1s.448-1 1-1h10c.552 0 1 .448 1 1s-.448 1-1 1z" />
  <path d="m11 13h-10c-.552 0-1-.448-1-1s.448-1 1-1h10c.552 0 1 .448 1 1s-.448 1-1 1z" />
  <path d="m11 18h-10c-.552 0-1-.448-1-1s.448-1 1-1h10c.552 0 1 .448 1 1s-.448 1-1 1z" />
  <path d="m21 23h-20c-.552 0-1-.448-1-1s.448-1 1-1h20c.552 0 1 .448 1 1s-.448 1-1 1z" />
  <path d="m14.239 11.45 3.5-3.25c.219-.203.537-.255.811-.138.273.119.45.389.45.688v2.25h3c.553 0 1 .448 1 1s-.447 1-1 1h-3v2.25c0 .298-.177.568-.45.688-.097.041-.198.062-.3.062-.186 0-.369-.069-.511-.2l-3.5-3.25c-.152-.143-.239-.342-.239-.55s.087-.408.239-.55z" />
</svg>
