<svg viewBox="-21 0 512 512" xmlns="http://www.w3.org/2000/svg">
  <path d="m276.203125 10.132812c-2.390625-6.121093-8.300781-10.132812-14.871094-10.132812h-160c-6.570312 0-12.480469 4.011719-14.867187 10.132812-2.410156 6.125-.855469 13.078126 3.96875 17.558594l80 74.664063c3.070312 2.882812 6.972656 4.3125 10.898437 4.3125s7.832031-1.429688 10.925781-4.3125l80-74.664063c4.796876-4.480468 6.375-11.433594 3.945313-17.558594zm0 0" />
  <path d="m85.332031 106.667969h-42.664062c-23.53125 0-42.667969 19.132812-42.667969 42.664062v320c0 23.53125 19.136719 42.667969 42.667969 42.667969h42.664062c23.53125 0 42.667969-19.136719 42.667969-42.667969v-320c0-23.53125-19.136719-42.664062-42.667969-42.664062zm0 42.644531v138.6875h-42.664062v-138.667969zm-42.664062 320.019531v-138.664062h42.664062v138.664062zm0 0" />
  <path d="m426.667969 106.667969h-149.335938c-23.53125 0-42.664062 19.132812-42.664062 42.664062v320c0 23.53125 19.132812 42.667969 42.664062 42.667969h149.335938c23.53125 0 42.664062-19.136719 42.664062-42.667969v-320c0-23.53125-19.132812-42.664062-42.664062-42.664062zm0 181.332031h-53.335938v-138.6875h53.335938zm-96-138.6875v138.6875h-53.335938v-138.667969zm-53.335938 181.355469h53.335938v138.664062h-53.335938zm96 138.664062v-138.664062h53.335938v138.664062zm0 0" />
</svg>
