<svg viewBox="0 0 26 26" xmlns="http://www.w3.org/2000/svg">
  <path d="M13.594,20.85V24h-10V2h10v3.15c0.633-0.323,1.304-0.565,2-0.727V1c0-0.551-0.448-1-1-1h-12
    c-0.55,0-1,0.449-1,1v24c0,0.551,0.449,1,1,1h12c0.552,0,1-0.449,1-1v-3.424C14.898,21.415,14.227,21.173,13.594,20.85z" />
  <path d="M17.594,6.188c-3.762,0-6.813,3.051-6.812,6.813c-0.001,3.761,3.05,6.812,6.812,6.812
    s6.813-3.051,6.813-6.813S21.355,6.188,17.594,6.188z M21.226,13.99l-7.267,0.001v-1.982h7.268L21.226,13.99z" />
</svg>
