<svg viewBox="0 -21 512 512" xmlns="http://www.w3.org/2000/svg">
  <path d="m102.355469 170.410156-74.664063-80c-4.480468-4.820312-11.414062-6.421875-17.558594-3.96875-6.121093 2.410156-10.132812 8.320313-10.132812 14.890625v160c0 6.570313 4.011719 12.480469 10.132812 14.871094 1.898438.765625 3.882813 1.128906 5.867188 1.128906 4.351562 0 8.597656-1.769531 11.691406-5.074219l74.664063-80c5.742187-6.144531 5.742187-15.703124 0-21.847656zm0 0" />
  <path d="m469.332031 0h-320c-23.53125 0-42.664062 19.136719-42.664062 42.667969v42.664062c0 23.53125 19.132812 42.667969 42.664062 42.667969h320c23.53125 0 42.667969-19.136719 42.667969-42.667969v-42.664062c0-23.53125-19.136719-42.667969-42.667969-42.667969zm-320 42.667969h138.667969v42.664062h-138.667969zm181.335938 42.664062v-42.664062h138.664062l.023438 42.664062zm0 0" />
  <path d="m469.332031 234.667969h-320c-23.53125 0-42.664062 19.132812-42.664062 42.664062v149.335938c0 23.53125 19.132812 42.664062 42.664062 42.664062h320c23.53125 0 42.667969-19.132812 42.667969-42.664062v-149.335938c0-23.53125-19.136719-42.664062-42.667969-42.664062zm0 96h-138.664062v-53.335938h138.664062zm-181.332031-53.335938v53.335938h-138.667969v-53.335938zm-138.667969 96h138.667969v53.335938h-138.667969zm181.335938 53.335938v-53.335938h138.6875v53.335938zm0 0" />
</svg>
