<svg viewBox="-21 0 512 512" xmlns="http://www.w3.org/2000/svg">
  <path d="m382.890625 10.132812c-2.410156-6.121093-8.320313-10.132812-14.890625-10.132812h-160c-6.570312 0-12.480469 4.011719-14.890625 10.132812-2.410156 6.125-.832031 13.078126 3.96875 17.558594l80 74.664063c3.070313 2.882812 6.996094 4.3125 10.921875 4.3125s7.851562-1.429688 10.921875-4.3125l80-74.664063c4.800781-4.480468 6.378906-11.433594 3.96875-17.558594zm0 0" />
  <path d="m426.667969 106.667969h-42.667969c-23.53125 0-42.667969 19.132812-42.667969 42.664062v320c0 23.53125 19.136719 42.667969 42.667969 42.667969h42.667969c23.53125 0 42.664062-19.136719 42.664062-42.667969v-320c0-23.53125-19.132812-42.664062-42.664062-42.664062zm0 42.664062v138.667969h-42.667969v-138.667969zm-42.667969 320.023438v-138.6875h42.667969v138.664062zm0 0" />
  <path d="m192 106.667969h-149.332031c-23.53125 0-42.667969 19.132812-42.667969 42.664062v320c0 23.53125 19.136719 42.667969 42.667969 42.667969h149.332031c23.53125 0 42.667969-19.136719 42.667969-42.667969v-320c0-23.53125-19.136719-42.664062-42.667969-42.664062zm0 181.332031h-53.332031v-138.667969h53.332031zm-96-138.667969v138.667969h-53.332031v-138.667969zm-53.332031 181.335938h53.332031v138.6875h-53.332031zm96 138.664062v-138.664062h53.332031v138.664062zm0 0" />
</svg>
