<svg viewBox="0 -21 512 512" xmlns="http://www.w3.org/2000/svg">
  <path d="m102.355469 277.078125-74.664063-80c-4.480468-4.820313-11.414062-6.421875-17.558594-3.96875-6.121093 2.410156-10.132812 8.320313-10.132812 14.890625v160c0 6.570312 4.011719 12.480469 10.132812 14.871094 1.898438.765625 3.882813 1.128906 5.867188 1.128906 4.351562 0 8.597656-1.769531 11.691406-5.078125l74.664063-80c5.742187-6.144531 5.742187-15.699219 0-21.84375zm0 0" />
  <path d="m469.332031 341.332031h-320c-23.53125 0-42.664062 19.136719-42.664062 42.667969v42.667969c0 23.53125 19.132812 42.664062 42.664062 42.664062h320c23.53125 0 42.667969-19.132812 42.667969-42.664062v-42.667969c0-23.53125-19.136719-42.667969-42.667969-42.667969zm-320.019531 42.667969h138.6875v42.667969h-138.667969zm320.019531 42.667969h-138.664062v-42.667969h138.664062zm0 0" />
  <path d="m469.332031 0h-320c-23.53125 0-42.664062 19.136719-42.664062 42.667969v149.332031c0 23.53125 19.132812 42.667969 42.664062 42.667969h320c23.53125 0 42.667969-19.136719 42.667969-42.667969v-149.332031c0-23.53125-19.136719-42.667969-42.667969-42.667969zm0 96h-138.664062v-53.332031h138.664062zm-320-53.332031h138.667969v53.332031h-138.6875zm0 96h138.667969v53.332031h-138.667969zm181.335938 53.332031v-53.332031h138.664062v53.332031zm0 0" />
</svg>
