<svg viewBox="0 0 94.737 94.737" xmlns="http://www.w3.org/2000/svg">
  <path d="M72.782,0H50.043L38.632,34.561h7.46c2.792,0,5.269,1.353,6.828,3.431l0.385-1.452l7.189-21.336l2.339-0.013l7.534,22.813
    H52.932c1.064,1.426,1.704,3.188,1.704,5.099v9.924h18.918l3.341,12.704h17.515L72.782,0z" />
  <path d="M51.547,85.23c-0.888-2.971-1.488-12.396-1.488-19.766c0-0.902-0.235-1.75-0.645-2.486
    c0.41-0.914,0.643-1.922,0.643-2.985V46.498c0-4.04-3.286-7.326-7.326-7.326h-6.926c-0.063-0.833-0.107-1.664-0.133-2.474
    c-0.029-0.729-0.039-1.406-0.042-2.073c-0.01-0.703,0.002-1.277,0.032-1.776c0.06-1.079,0.188-2.124,0.378-3.057
    c0.205-1,0.432-1.649,0.519-1.883c0.015-0.041,0.03-0.08,0.044-0.121c0.056-0.161,0.104-0.281,0.136-0.351
    c2.836-5.413,0.769-12.133-4.634-15.013c-1.597-0.85-3.394-1.3-5.195-1.307c-1.803,0.007-3.599,0.457-5.194,1.307
    c-5.402,2.88-7.471,9.6-4.635,15.013c0.031,0.069,0.081,0.189,0.137,0.351c0.014,0.041,0.028,0.08,0.044,0.121
    c0.087,0.233,0.312,0.883,0.518,1.883c0.19,0.933,0.32,1.978,0.378,3.057c0.031,0.499,0.042,1.073,0.033,1.776
    c-0.004,0.667-0.013,1.344-0.042,2.073c-0.026,0.81-0.07,1.641-0.133,2.474h-6.926c-4.04,0-7.326,3.286-7.326,7.326v13.495
    c0,1.063,0.231,2.071,0.642,2.985c-0.409,0.736-0.644,1.584-0.644,2.486c0,7.368-0.602,16.795-1.488,19.766
    c-1.821,1.5-2.168,3.619-1.828,5.191c0.937,4.315,5.459,4.315,6.945,4.315c3.454,0,9.681-0.606,9.943-0.632
    c0.402-0.041,0.791-0.127,1.159-0.252c0.395,0.099,0.805,0.151,1.222,0.152l7.195,0.035l7.196-0.035
    c0.417-0.001,0.827-0.055,1.221-0.152c0.368,0.125,0.757,0.211,1.159,0.252c0.263,0.024,6.491,0.632,9.944,0.632
    c1.485,0,6.01,0,6.944-4.315C53.715,88.85,53.368,86.73,51.547,85.23z M37.074,89.198L34.326,77.21l-1.375,11.871l-13.3-0.006
    l-2.906-6.99v7.113c0,0-13.952,1.368-10.942,0c3.009-1.367,3.009-23.527,3.009-23.527h18.098h18.099c0,0,0,22.16,3.009,23.527
    C51.026,90.566,37.074,89.198,37.074,89.198z" />
</svg>
